<svg xmlns="http://www.w3.org/2000/svg" viewBox="0 0 800 1200" role="img" aria-label="Ilustración en blanco y negro de una jerarquía organizacional de puestos">
  <rect width="800" height="1200" fill="#0b0b0d" />
  <defs>
    <pattern id="dots-positions" width="32" height="32" patternUnits="userSpaceOnUse">
      <circle cx="2" cy="2" r="1.6" fill="#ffffff" fill-opacity="0.16" />
    </pattern>
  </defs>
  <rect width="800" height="1200" fill="url(#dots-positions)" />
  <g fill="none" stroke="#ffffff">
    <rect x="330" y="250" width="140" height="64" rx="10" stroke-opacity="0.5" stroke-width="1.5" />
    <rect x="150" y="520" width="140" height="64" rx="10" stroke-opacity="0.35" stroke-width="1.5" />
    <rect x="330" y="520" width="140" height="64" rx="10" stroke-opacity="0.35" stroke-width="1.5" />
    <rect x="510" y="520" width="140" height="64" rx="10" stroke-opacity="0.35" stroke-width="1.5" />
    <rect x="150" y="790" width="140" height="64" rx="10" stroke-opacity="0.22" stroke-width="1.5" />
    <rect x="330" y="790" width="140" height="64" rx="10" stroke-opacity="0.22" stroke-width="1.5" />
    <rect x="510" y="790" width="140" height="64" rx="10" stroke-opacity="0.22" stroke-width="1.5" />
  </g>
  <g stroke="#ffffff">
    <path d="M400 314 L220 520" stroke-opacity="0.4" stroke-width="1.2" />
    <path d="M400 314 L400 520" stroke-opacity="0.4" stroke-width="1.2" />
    <path d="M400 314 L580 520" stroke-opacity="0.4" stroke-width="1.2" />
    <path d="M220 584 L220 790" stroke-opacity="0.25" stroke-width="1.2" />
    <path d="M400 584 L400 790" stroke-opacity="0.25" stroke-width="1.2" />
    <path d="M580 584 L580 790" stroke-opacity="0.25" stroke-width="1.2" />
  </g>
  <g fill="#ffffff" stroke="#0b0b0d">
    <circle cx="400" cy="282" r="6" />
    <circle cx="220" cy="552" r="5" />
    <circle cx="400" cy="552" r="5" />
    <circle cx="580" cy="552" r="5" />
    <circle cx="220" cy="822" r="4" />
    <circle cx="400" cy="822" r="4" />
    <circle cx="580" cy="822" r="4" />
  </g>
  <g fill="#0b0b0d" stroke="#ffffff">
    <rect x="358" y="270" width="84" height="24" rx="6" stroke-width="1.2" />
  </g>
</svg>